<?xml version="1.0" encoding="utf-8"?>
<!-- Generator: Adobe Illustrator 16.0.0, SVG Export Plug-In . SVG Version: 6.00 Build 0)  -->
<!DOCTYPE svg PUBLIC "-//W3C//DTD SVG 1.1//EN" "http://www.w3.org/Graphics/SVG/1.1/DTD/svg11.dtd">
<svg version="1.1" id="圖層_1" xmlns="http://www.w3.org/2000/svg" xmlns:xlink="http://www.w3.org/1999/xlink" x="0px" y="0px"
	 width="355.996px" height="68.039px" viewBox="0 143.989 355.996 68.039" enable-background="new 0 143.989 355.996 68.039"
	 xml:space="preserve">
<path fill="#382E22" d="M120.901,190.771v-3.837c0-12.413,7.174-20.607,21.789-20.607c13.793,0,19.826,8.283,19.826,20.427v6.986
	h-28.191c0.277,5.967,2.982,8.629,10.436,8.629c4.879,0.021,9.715-0.883,14.256-2.662l2.43,9.099
	c-5.477,2.22-11.344,3.313-17.254,3.216C127.235,212.024,120.901,203.643,120.901,190.771z M134.319,185.099h16.207v-1.103
	c0-4.799-1.951-8.556-7.836-8.556c-6.047-0.003-8.371,3.775-8.371,9.649V185.099z M180.815,204.422v6.619h-12.668v-65.772
	l13.41-1.198v29.242c2.455-4.544,7.309-7.265,12.467-6.986c12.293,0,18.26,9.214,18.229,21.446v2.758
	c0,12.242-5.924,21.431-18.207,21.431C188.518,212.35,183.299,209.375,180.815,204.422z M181.541,186.846v4.607
	c0,6.289,2.986,10.126,8.471,10.126c6.424,0,8.852-4.606,8.852-10.765v-3.32c0-6.16-2.42-10.764-8.852-10.764
	C184.528,176.72,181.541,180.58,181.541,186.846z M34.502,190.535v-2.804c0-12.226,5.924-21.431,18.217-21.431
	c5.428-0.322,10.498,2.724,12.764,7.668v-6.717h12.855v43.792H65.483v-6.618c-2.271,4.923-7.355,7.926-12.764,7.539
	C40.371,211.965,34.502,202.761,34.502,190.535z M47.994,187.573v3.126c0,6.536,2.381,10.86,8.625,10.86
	c5.502,0,8.291-3.949,8.291-10.202v-4.423c0-6.253-2.789-10.201-8.291-10.201c-6.195-0.007-8.615,4.317-8.615,10.847L47.994,187.573
	z M265.401,190.235v-2.204c0-12.602,7.24-21.72,22.049-21.72s22.076,9.109,22.051,21.72v2.204c0,12.607-7.264,21.72-22.051,21.72
	c-14.785,0-22.043-9.112-22.043-21.713L265.401,190.235z M278.819,187.115v4.042c0,5.802,2.42,10.405,8.625,10.405
	s8.629-4.653,8.629-10.405v-4.042c0-5.795-2.43-10.396-8.629-10.396s-8.619,4.647-8.619,10.402L278.819,187.115z M216.774,190.235
	v-2.204c0-12.602,7.24-21.72,22.049-21.72s22.076,9.109,22.049,21.72v2.204c0,12.607-7.262,21.72-22.049,21.72
	c-14.785,0-22.043-9.112-22.043-21.713L216.774,190.235z M230.192,187.115v4.042c0,5.802,2.428,10.405,8.629,10.405
	c6.199,0,8.625-4.653,8.625-10.405v-4.042c0-5.795-2.426-10.396-8.625-10.396c-6.201,0-8.623,4.647-8.623,10.402L230.192,187.115z
	 M83.356,190.144v-2.024c0-13.417,7.178-21.799,22.912-21.799c4.475-0.193,8.92,0.831,12.855,2.962l-2.982,9.376
	c-2.795-1.313-5.846-2.001-8.934-2.017c-7.273,0-10.436,4.136-10.441,11.215v2.563c0,7.085,3.168,11.229,10.441,11.229
	c3.088-0.021,6.139-0.712,8.934-2.023l2.982,9.385c-3.939,2.124-8.385,3.14-12.855,2.939c-15.734-0.007-22.906-8.379-22.906-21.799
	L83.356,190.144z M341.742,211.027l-13.783-21.431v21.431h-13.418v-65.758l13.418-1.185v44.061l13.234-20.884h14.25l-13.885,21.625
	l14.438,22.156L341.742,211.027z M9.037,210.998V178.06H0v-10.811h9.039v-6.513c0-10.945,4.469-16.748,16.957-16.748
	c2.613-0.005,5.223,0.147,7.814,0.458v10.202h-5.957c-4.191,0-5.406,1.836-5.406,5.884v6.71h11.191l-1.109,10.86H22.463v32.938
	L9.037,210.998z"/>
</svg>
