<?xml version="1.0" encoding="utf-8"?>
<!-- Generator: Adobe Illustrator 16.0.0, SVG Export Plug-In . SVG Version: 6.00 Build 0)  -->
<!DOCTYPE svg PUBLIC "-//W3C//DTD SVG 1.1//EN" "http://www.w3.org/Graphics/SVG/1.1/DTD/svg11.dtd">
<svg version="1.1" id="圖層_1" xmlns="http://www.w3.org/2000/svg" xmlns:xlink="http://www.w3.org/1999/xlink" x="0px" y="0px"
	 width="355.988px" height="117.178px" viewBox="-0.01 119.416 355.988 117.178"
	 enable-background="new -0.01 119.416 355.988 117.178" xml:space="preserve">
<path fill="#382E22" d="M222.67,219.342l11.191-4.658c2.348,6.131,8.172,10.234,14.734,10.387c9.652,0,15.633-5.955,15.633-17.165
	v-4.213h-0.453c-3.906,4.38-9.547,6.813-15.414,6.653c-15.715-0.502-28.16-13.439-28.059-29.161
	c-0.168-15.785,12.281-28.826,28.059-29.388c5.84-0.142,11.461,2.242,15.414,6.541h0.453v-4.764h12.207v52.567
	c0,21.623-12.746,30.453-27.832,30.453C237.256,236.658,226.998,229.836,222.67,219.342z M233.213,181.182
	c-0.461,9.27,6.68,17.16,15.949,17.623c0.117,0.006,0.238,0.01,0.355,0.014c8.754,0,15.637-7.432,15.637-17.637
	c0-10.319-6.883-17.856-15.637-17.856c-9.344,0.331-16.648,8.175-16.316,17.519c0.004,0.114,0.004,0.228,0.012,0.341V181.182z
	 M156.971,181.075c-0.242-15.935,12.484-29.045,28.418-29.283c0.32-0.005,0.637-0.004,0.957,0.001
	c15.93-0.294,29.082,12.379,29.379,28.308c0.004,0.324,0.004,0.649,0,0.974c0.199,15.973-12.586,29.083-28.559,29.283
	c-0.273,0.004-0.547,0.003-0.82-0.001c-15.973,0.25-29.125-12.496-29.375-28.471c-0.004-0.269-0.004-0.538,0-0.808V181.075z
	 M169.819,181.075c-0.465,9.335,6.727,17.278,16.059,17.741c0.152,0.008,0.305,0.014,0.457,0.018
	c9.352-0.221,16.754-7.98,16.531-17.333c-0.004-0.142-0.008-0.284-0.016-0.426c0.492-9.304-6.652-17.246-15.953-17.738
	c-0.188-0.01-0.375-0.017-0.563-0.02c-9.316,0.188-16.711,7.892-16.523,17.204c0.004,0.187,0.012,0.372,0.02,0.558L169.819,181.075z
	 M93.592,181.075c-0.246-15.928,12.465-29.039,28.395-29.283c0.324-0.005,0.648-0.005,0.973,0.001
	c15.934-0.292,29.086,12.385,29.379,28.316c0.004,0.322,0.004,0.645,0,0.966c0.199,15.975-12.59,29.085-28.566,29.283
	c-0.27,0.003-0.543,0.003-0.813-0.001C106.99,210.6,93.85,197.85,93.604,181.88c-0.004-0.267-0.004-0.534,0-0.801L93.592,181.075z
	 M106.44,181.075c-0.461,9.339,6.734,17.282,16.078,17.742c0.145,0.007,0.293,0.013,0.438,0.017
	c9.352-0.221,16.754-7.979,16.531-17.329c-0.004-0.144-0.008-0.286-0.016-0.43c0.496-9.302-6.645-17.243-15.945-17.737
	c-0.188-0.01-0.379-0.017-0.57-0.021c-9.316,0.193-16.711,7.902-16.516,17.22c0.004,0.182,0.004,0.361,0.016,0.542L106.44,181.075z
	 M301.975,181.075c0-17.418,12.527-29.282,27.621-29.282c11.438,0.318,21.453,7.767,25.047,18.631l1.336,3.321l-39.148,16.209
	c2.465,5.587,8.094,9.104,14.195,8.875c5.902,0.031,11.379-3.049,14.418-8.105l9.977,6.654c-5.434,8.15-14.598,13.025-24.395,12.975
	c-15.816,0.221-28.82-12.424-29.039-28.242c-0.008-0.35-0.004-0.701,0.004-1.051L301.975,181.075z M314.721,180.191l26.172-10.871
	c-2.051-4.061-6.332-6.502-10.871-6.2c-8.859,0.41-15.707,7.924-15.297,16.783c0.004,0.091,0.008,0.182,0.016,0.271L314.721,180.191
	z M-0.01,164.889c0.34-25.227,20.902-45.491,46.133-45.468c11.648-0.185,22.875,4.332,31.152,12.529l-8.766,8.762
	c-6.004-5.794-14.059-8.981-22.406-8.868c-18.012,0.001-32.609,14.602-32.609,32.612c0,0.144,0,0.287,0.004,0.43
	c-0.238,18.009,14.168,32.8,32.176,33.039c0.141,0.002,0.285,0.002,0.43,0.002c8.598,0.35,16.938-2.953,22.969-9.094
	c3.895-4.232,6.262-9.647,6.723-15.381H46.104v-12.416h41.871c0.43,2.474,0.641,4.981,0.625,7.492
	c0.344,10.722-3.52,21.152-10.766,29.063c-8.254,8.598-19.801,13.24-31.711,12.748c-25.223,0.014-45.77-20.243-46.117-45.46
	L-0.01,164.889z M284.033,208.574v-85.81h12.539v85.779L284.033,208.574z M276.451,153.569L276.451,153.569z"/>
</svg>
