<?xml version="1.0" encoding="utf-8"?>
<!-- Generator: Adobe Illustrator 16.0.0, SVG Export Plug-In . SVG Version: 6.00 Build 0)  -->
<!DOCTYPE svg PUBLIC "-//W3C//DTD SVG 1.1//EN" "http://www.w3.org/Graphics/SVG/1.1/DTD/svg11.dtd">
<svg version="1.1" id="圖層_1" xmlns="http://www.w3.org/2000/svg" xmlns:xlink="http://www.w3.org/1999/xlink" x="0px" y="0px"
	 width="355.967px" height="82.617px" viewBox="0.006 136.693 355.967 82.617"
	 enable-background="new 0.006 136.693 355.967 82.617" xml:space="preserve">
<path fill="#382E22" d="M333.865,214.31c-0.219-2.762,1.844-5.178,4.602-5.396c0.172-0.014,0.344-0.019,0.512-0.015
	c2.836-0.311,5.387,1.734,5.699,4.569c0.02,0.171,0.027,0.342,0.027,0.513c0.297,2.633-1.598,5.005-4.23,5.3
	c-0.234,0.026-0.477,0.036-0.715,0.026C336.502,219.307,333.865,217.614,333.865,214.31z M37.838,219.053
	c-1.723-0.303-3.465-0.477-5.211-0.521c-1.754,0.061-3.496,0.234-5.223,0.521l0.027-0.022l-0.043,0.022l0.648-34.987
	c-4.848-8.387-19.125-33.932-28.031-47.372l0.055,0.044l-0.035-0.044c3.555,0.989,7.316,0.989,10.871,0l-0.047,0.025l0.059-0.025
	c5.668,10.05,14.387,24.103,21.723,36.281c7.25-11.917,18.621-30.502,21.723-36.271l0,0l0,0l0,0c3.582,0.898,7.332,0.898,10.91,0
	l0,0l-0.023,0.026c-4.137,5.609-19.047,31.476-28.09,47.339h0.023L37.838,219.053z M250.78,177.847
	c0-24.232,17.551-37.251,40.508-37.251c25.816,0,40.797,15.292,40.797,37.62c0,23.679-16.039,37.182-40.605,37.182
	C262.455,215.387,250.78,197.815,250.78,177.847z M261.635,177.707c0,24.623,14.16,33.74,29.703,33.74
	c14.543,0,29.906-8.137,29.906-33.246c0-23.096-12.695-33.563-29.93-33.563c-13.984-0.007-29.68,7.546-29.68,33.073V177.707z
	 M176.565,178.076c0-18.943,12.094-33.563,35.137-33.563c21.391,0,35.223,12.688,35.223,33.773
	c0,18.917-11.563,33.176-35.246,33.176c-21.91-0.003-35.113-12.658-35.113-33.397V178.076z M187.381,178.19
	c0,18.57,9.02,29.583,24.391,29.583c14.086,0,24.422-9.59,24.422-29.646s-10.355-29.661-24.449-29.661h-0.609
	c-12.633,0.248-23.766,8.705-23.766,29.713L187.381,178.19z M102.186,210.592L102.186,210.592
	c-2.484-6.385-5.023-12.758-7.555-19.135c-8.898-0.288-17.809-0.251-26.715,0l0,0c-2.637,6.66-5.266,13.277-7.582,19.115
	l-0.059-0.021l0.059,0.029c-3.512-0.879-7.184-0.879-10.695,0l0.086-0.037l-0.137,0.045c9.07-18.482,19.148-43.264,27.898-65.224
	l0,0c2.438,0.919,5.133,0.919,7.57,0l-0.055,0.026l0.063-0.026c8.336,21.093,21.449,53.012,27.984,65.205h-0.039h0.039
	c-3.559-0.894-7.285-0.894-10.844,0L102.186,210.592z M92.815,186.912c-4.023-10.139-7.977-20.245-11.578-30.269
	c-2.367,6.809-6.836,18.32-11.539,30.269c7.719,0.271,15.43,0.268,23.129-0.01L92.815,186.912z M49.561,210.592
	c0.016-0.004,0.031-0.004,0.043,0H49.561z M162.565,210.592h0.031h-0.047c0.531-10.119,0.813-20.229,0.84-30.329
	c-12.145-0.165-24.289-0.165-36.438,0l0,0c0.043,10.101,0.328,20.21,0.852,30.329h-0.043h0.031c-3.566-0.868-7.289-0.868-10.855,0
	c0.871-21.702,0.949-43.426,0-65.198c3.57,0.872,7.297,0.872,10.867,0l0,0l0,0c-0.523,10.141-0.809,20.282-0.848,30.425l0,0
	c12.129,0.305,24.281,0.305,36.441,0c-0.027-10.147-0.313-20.29-0.848-30.425c3.566,0.872,7.297,0.872,10.863,0
	c-0.941,21.761-0.863,43.496,0,65.198c-3.559-0.87-7.273-0.873-10.836-0.012L162.565,210.592z M339.44,201.002l-0.133,0.033l0,0
	h-0.02l0.02-0.019c2.652-18.726,4.258-38.395,5.809-58.013c-0.281-2.713,1.695-5.14,4.406-5.419
	c0.262-0.027,0.527-0.033,0.789-0.018c0.371,0.012,0.738,0.043,1.105,0.096l0,0c2.617,0.171,4.629,2.383,4.555,5.005
	c-0.105,1.16-0.324,2.308-0.648,3.427c-1.844,8.066-8.98,36.558-11.98,55.579l0,0v0.021c-1.203-0.596-2.555-0.837-3.891-0.697
	L339.44,201.002z"/>
</svg>
